<?xml version="1.0" encoding="UTF-8" standalone="no"?>
<!-- Created with Inkscape (http://www.inkscape.org/) -->

<svg
   width="264.25269mm"
   height="264.25119mm"
   viewBox="0 0 264.25269 264.25119"
   version="1.1"
   id="svg5"
   inkscape:version="1.1.2 (b8e25be833, 2022-02-05)"
   sodipodi:docname="PlayStation (Alt Symbol, 1994).svg"
   xmlns:inkscape="http://www.inkscape.org/namespaces/inkscape"
   xmlns:sodipodi="http://sodipodi.sourceforge.net/DTD/sodipodi-0.dtd"
   xmlns="http://www.w3.org/2000/svg"
   xmlns:svg="http://www.w3.org/2000/svg">
  <sodipodi:namedview
     id="namedview7"
     pagecolor="#ffffff"
     bordercolor="#111111"
     borderopacity="1"
     inkscape:pageshadow="0"
     inkscape:pageopacity="0"
     inkscape:pagecheckerboard="1"
     inkscape:document-units="mm"
     showgrid="false"
     inkscape:zoom="0.3017356"
     inkscape:cx="558.43593"
     inkscape:cy="770.54216"
     inkscape:window-width="1128"
     inkscape:window-height="682"
     inkscape:window-x="-6"
     inkscape:window-y="-6"
     inkscape:window-maximized="1"
     inkscape:current-layer="layer1" />
  <defs
     id="defs2" />
  <g
     inkscape:label="Layer 1"
     inkscape:groupmode="layer"
     id="layer1"
     transform="translate(5.7508849,-78.177128)">
    <g
       id="g33"
       transform="matrix(0.26458333,0,0,0.26458333,185.78902,28.299146)">
	
	<polygon
   points="8.965,8.965 8.965,887.648 887.653,887.648 887.653,8.965 "
   id="polygon11"
   transform="matrix(1.1366382,0,0,1.1366382,-734.12032,178.32525)"
   style="fill:#000000;fill-opacity:1" />

	
	
	<path
   fill="#00b49d"
   d="m -268.84049,676.18034 -119.77029,-35.2076 c 0,0 -147.06361,52.5998 -158.71052,56.5499 -11.64103,3.94422 -27.78353,10.3114 -27.78353,10.3114 l 114.99608,36.91579 z"
   id="path17"
   style="stroke-width:1.17563" />

	<path
   fill="#00b49d"
   d="m -271.01186,805.45556 -116.65606,-37.44717 194.43776,-69.60286 123.545215,36.32093 c 0,0 -162.453705,57.51626 -172.316015,61.06783 -9.86819,3.55157 -29.0109,9.66127 -29.0109,9.66127 z"
   id="path19"
   style="stroke-width:1.17563" />

	<path
   fill="#00b49d"
   d="M 124.08739,791.69018 5.6914131,756.88698 -196.66653,829.3231 -82.508648,865.97085 c 0,0 176.014533,-63.26977 184.698858,-66.22646 8.68553,-2.96376 21.89718,-8.05421 21.89718,-8.05421 z"
   id="path21"
   style="stroke-width:1.17563" />

	<polygon
   fill="#fdb913"
   points="379.917,669.362 478.45,700.346 573.73,665.971 476.627,634.798 "
   id="polygon23"
   transform="matrix(1.1756247,0,0,1.1756247,-757.00102,83.038866)" />

	<path
   fill="#fdb913"
   d="m -387.66793,768.00956 116.65606,37.44717 c -130.23923,42.95382 -227.7573,27.44614 -287.75532,10.86632 -59.99682,-16.57866 -76.57548,-34.14604 -78.15787,-55.45894 -1.57651,-21.31995 30.98594,-40.26514 61.81906,-53.03007 l 114.99606,36.91579 -29.18487,10.39135 c -12.83076,4.34276 -38.68276,17.16883 -17.17352,27.23335 23.02696,10.77459 66.31463,5.13279 89.80008,-3.74789 z"
   id="path25"
   style="stroke-width:1.17563" />

	<polygon
   fill="#3777bc"
   points="365.226,456.288 465.991,486.464 415.235,504.533 313.357,474.585 "
   id="polygon27"
   transform="matrix(1.1756247,0,0,1.1756247,-757.00102,83.038866)" />

	<path
   fill="#3777bc"
   d="M -69.683766,734.72646 -193.23016,698.40553 c 56.43469,-21.67498 100.82392,-33.06444 164.772025,-35.04067 70.646821,-2.18078 124.827835,14.71529 143.477945,20.52875 39.27411,12.23708 68.87987,28.4184 71.4439,50.12982 3.36346,28.49244 -38.30186,49.00004 -62.37749,57.66675 L 5.6902431,756.88698 c 0,0 29.0061879,-10.23381 40.4508879,-14.18392 11.444709,-3.94303 23.289129,-11.83736 20.920239,-18.94518 -2.372401,-7.10313 -16.566895,-10.36077 -20.127862,-10.85571 -7.109,-0.98166 -19.596497,-2.71688 -41.0528129,-0.78534 -17.5650191,1.5777 -30.3957781,6.51415 -30.3957781,6.51415 z"
   id="path29"
   style="stroke-width:1.17563" />

	<path
   fill="#ed1c24"
   d="m -329.62262,271.04478 v 593.38719 l 134.25987,42.61051 V 409.3582 c 0,-23.31028 10.41485,-38.90731 27.2016,-33.53351 v 0 c 21.91365,6.11441 26.17999,27.58132 26.17999,50.89161 v 198.77464 c 83.699782,40.38976 149.5629821,-0.0435 149.5629821,-106.71147 0,-109.43891 -38.5369831,-158.03335 -152.2292921,-197.03941 -44.72547,-15.0668 -127.88094,-40.10173 -184.97515,-50.69528 z"
   id="path31"
   style="stroke-width:1.17563" />

<g
   id="g1349"
   transform="matrix(0.70860941,0,0,0.70860941,-579.33907,958.63687)"
   style="fill:#ffffff">
  <g
     id="g4790"
     transform="matrix(2.0247915,0,0,2.0247915,0,3.0963379e-4)"
     style="fill:#ffffff">
    <path
       d="M 0,0 V 73.572 H 11.486 V 7.05 H 22.12 c 0,0 7.716,-0.009 10.364,3.454 2.245,2.921 2.66,8.245 2.66,11.85 0,3.854 -0.254,9.783 -1.542,11.956 -1.957,3.33 -5.182,4.001 -8.122,4.001 h -6.994 v 6.518 h 10.078 c 0,0 9.102,0.395 13.017,-3.588 4.803,-4.887 6.033,-11.455 6.033,-20.232 0,-7.978 -2.907,-16.021 -8.82,-18.744 C 33.889,0 25.066,0 25.066,0 Z"
       id="path4699"
       inkscape:connector-curvature="0"
       style="fill:#ffffff" />
    <g
       id="g4701"
       style="fill:#ffffff">
				<rect
   x="56.623001"
   width="11.482"
   height="73.571999"
   id="rect4703"
   y="0"
   style="fill:#ffffff" />

			</g>
    <polygon
       points="147.682,101.756 182.406,17.16 171.765,17.16 156.633,58.401 142.564,17.16 129.19,17.16 150.198,72.231 138.155,101.756 "
       id="polygon4705"
       style="fill:#ffffff" />
    <path
       d="m 191.05,73.127 v -6.954 c 0,0 12.157,0.469 14.677,0.469 5.603,0 8.402,-1.199 10.496,-3.454 1.25,-1.341 2.386,-7.362 2.386,-9.498 0,-2.113 -0.419,-6.748 -1.259,-8.604 -0.839,-1.869 -2.802,-3.587 -5.741,-3.845 -2.09,-0.179 -5.323,-0.588 -9.104,-0.767 -5.32,-0.253 -8.819,-3.018 -10.507,-5.016 -1.673,-1.989 -3.916,-4.97 -3.916,-14.151 0,-9.187 2.379,-14.331 4.76,-16.729 2.386,-2.397 5.864,-3.454 8.547,-3.909 3.075,-0.546 8.114,-0.574 8.114,-0.574 l 16.071,0.473 v 6.95 c 0,0 -11.725,-0.469 -14.245,-0.469 -5.603,0 -7.288,1.194 -9.382,3.454 -1.25,1.341 -2.204,5.048 -2.204,7.184 0,2.131 0.235,6.43 1.09,8.3 0.831,1.864 2.787,3.592 5.737,3.835 2.085,0.184 5.316,0.602 9.102,0.776 5.316,0.248 8.816,3.013 10.503,5.011 1.679,1.989 3.92,6.188 3.92,15.373 0,9.182 -2.386,15.736 -4.763,18.134 -2.386,2.402 -5.869,3.445 -8.552,3.899 -3.076,0.556 -8.113,0.569 -8.113,0.569 z"
       id="path4707"
       inkscape:connector-curvature="0"
       style="fill:#ffffff" />
    <path
       d="m 253.709,7.05 h -11.484 v 54.01 c 0,0 0.278,4.92 0.56,6.646 0.286,1.736 2.802,5.865 9.384,5.865 l 11.902,-0.248 v -6.936 c 0,0 -3.225,0.239 -5.184,0.239 -1.958,0 -4.342,-0.134 -4.762,-3.459 -0.416,-3.325 -0.416,-7.303 -0.416,-7.303 V 24.068 h 12.944 V 17.16 h -12.944 z"
       id="path4709"
       inkscape:connector-curvature="0"
       style="fill:#ffffff" />
    <g
       id="g4711"
       style="fill:#ffffff">
				<rect
   x="364.50299"
   y="17.16"
   width="11.487"
   height="56.411999"
   id="rect4713"
   style="fill:#ffffff" />

			</g>
    <g
       id="g4715"
       style="fill:#ffffff">
				<rect
   x="364.50299"
   width="11.487"
   height="10.243"
   id="rect4717"
   y="0"
   style="fill:#ffffff" />

			</g>
    <path
       d="m 412.263,16.668 c 7.822,0 13.862,1.759 17.146,4.4 3.271,2.631 7.299,8.194 7.299,24.292 0,16.095 -4.028,21.666 -7.299,24.303 -3.283,2.632 -9.323,4.387 -17.146,4.387 -7.809,0 -13.871,-1.755 -17.142,-4.387 -3.275,-2.637 -7.303,-8.208 -7.303,-24.303 0,-16.099 4.027,-21.661 7.303,-24.292 3.271,-2.64 9.333,-4.4 17.142,-4.4 z m -7.868,10.84 c -1.58,1.916 -3.514,6.021 -3.514,17.854 0,11.823 1.934,15.925 3.514,17.863 1.57,1.929 4.482,3.21 8.227,3.21 3.757,0 6.655,-1.281 8.235,-3.21 1.575,-1.938 3.514,-6.04 3.514,-17.863 0,-11.832 -1.938,-15.938 -3.514,-17.854 -1.58,-1.947 -4.479,-3.229 -8.235,-3.229 -3.745,0 -6.657,1.282 -8.227,3.229 z"
       id="path4719"
       inkscape:connector-curvature="0"
       style="fill:#ffffff" />
    <path
       d="m 460.495,25.069 11.262,-0.455 c 2.94,0 6.403,0.8 8.094,2.908 1.57,2.007 2.54,4.399 2.54,8.263 v 37.719 h 11.487 V 34.853 c 0,-7.33 -2.237,-11.579 -5.604,-14.239 -4.818,-3.812 -13.431,-3.454 -13.431,-3.454 L 449.1,17.638 v 55.866 h 11.396 V 25.069 Z"
       id="path4721"
       inkscape:connector-curvature="0"
       style="fill:#ffffff" />
    <path
       d="m 341.639,7.05 h -11.482 v 54.01 c 0,0 0.279,4.92 0.564,6.646 0.285,1.736 2.802,5.865 9.384,5.865 l 11.896,-0.248 v -6.936 c 0,0 -3.216,0.239 -5.177,0.239 -1.957,0 -4.345,-0.134 -4.763,-3.459 -0.423,-3.325 -0.423,-7.303 -0.423,-7.303 V 24.068 H 354.59 V 17.16 H 341.638 V 7.05 Z"
       id="path4723"
       inkscape:connector-curvature="0"
       style="fill:#ffffff" />
    <path
       d="m 111.675,35.785 c 0,-3.863 -0.979,-6.256 -2.556,-8.263 -1.681,-2.108 -5.138,-2.908 -8.088,-2.908 l -15.138,0.455 v -7.432 l 18.222,-0.478 c 0,0 8.617,-0.358 13.445,3.454 3.363,2.66 5.597,6.909 5.597,14.239 v 38.109 l -22.002,0.459 c 0,0 -9.974,0.051 -14.979,-1.988 -4.904,-1.989 -7.563,-7.464 -7.563,-15.038 0,-7.313 2.242,-11.565 5.607,-14.229 4.813,-3.813 13.435,-3.459 13.435,-3.459 h 7.023 v 6.518 h -3.938 c -2.941,0 -5.984,0.542 -7.67,2.655 -1.57,2.012 -2.414,3.734 -2.414,7.597 0,5.053 0.988,7.317 3.36,9.049 2.102,1.521 5.88,1.855 10.081,1.855 l 7.58,-0.474 V 35.785 Z"
       id="path4725"
       inkscape:connector-curvature="0"
       style="fill:#ffffff" />
    <path
       d="m 305.293,35.785 c 0,-3.863 -0.979,-6.256 -2.563,-8.263 -1.686,-2.108 -5.14,-2.908 -8.077,-2.908 l -15.146,0.455 v -7.432 l 18.219,-0.478 c 0,0 8.623,-0.358 13.441,3.454 3.362,2.66 5.604,6.909 5.604,14.239 V 72.961 L 294.77,73.42 c 0,0 -9.974,0.051 -14.985,-1.988 -4.896,-1.989 -7.556,-7.464 -7.556,-15.038 0,-7.313 2.232,-11.565 5.597,-14.229 4.816,-3.813 13.444,-3.459 13.444,-3.459 h 7.021 v 6.518 h -3.937 c -2.941,0 -5.982,0.542 -7.666,2.655 -1.584,2.012 -2.423,3.734 -2.423,7.597 0,5.053 0.983,7.317 3.365,9.049 2.097,1.521 5.883,1.855 10.084,1.855 l 7.578,-0.474 V 35.785 Z"
       id="path4727"
       inkscape:connector-curvature="0"
       style="fill:#ffffff" />
  </g>
  <g
     id="g4729"
     transform="translate(0,104.279)"
     style="fill:#ffffff">
		
		
	</g>
</g>
</g>
  </g>
</svg>
